<svg width="129" height="18" viewBox="0 0 129 18" fill="none" xmlns="http://www.w3.org/2000/svg">
<path d="M12.8401 15.8208C12.5986 15.9771 12.2506 16.1688 11.7961 16.3961C11.3557 16.6092 10.8302 16.7938 10.2194 16.9501C9.62284 17.1063 8.96945 17.1773 8.25925 17.1631C7.0519 17.1489 5.97239 16.9359 5.02072 16.5239C4.06905 16.112 3.25231 15.551 2.57052 14.8408C1.90292 14.1163 1.39158 13.2925 1.03647 12.3692C0.681373 11.4318 0.503822 10.4375 0.503822 9.38639C0.503822 8.22166 0.688475 7.15635 1.05778 6.19047C1.44129 5.21039 1.97394 4.36525 2.65574 3.65504C3.33754 2.93063 4.14007 2.36957 5.06333 1.97186C6.0008 1.57414 7.0235 1.37529 8.13141 1.37529C9.06888 1.37529 9.92113 1.50312 10.6881 1.7588C11.4552 2.01447 12.1015 2.30566 12.627 2.63235L11.7321 4.72035C11.3202 4.43627 10.8089 4.16639 10.1981 3.91072C9.60154 3.65504 8.93394 3.52721 8.19533 3.52721C7.22945 3.52721 6.3346 3.78288 5.51076 4.29423C4.70113 4.80557 4.04774 5.49447 3.5506 6.36092C3.06766 7.22737 2.82619 8.20035 2.82619 9.27986C2.82619 10.3736 3.04635 11.3537 3.48668 12.2201C3.94121 13.0866 4.58039 13.7683 5.40423 14.2655C6.22807 14.7626 7.19394 15.0112 8.30186 15.0112C9.09729 15.0112 9.79329 14.8905 10.3899 14.649C11.0006 14.4075 11.4978 14.1306 11.8813 13.8181L12.8401 15.8208ZM19.4734 17.2057C18.6354 17.2057 17.8755 17.0282 17.1937 16.6731C16.5119 16.318 15.9721 15.7995 15.5744 15.1177C15.1767 14.4217 14.9778 13.5624 14.9778 12.5397C14.9778 11.5454 15.1838 10.6932 15.5957 9.98296C16.0218 9.25855 16.5758 8.70459 17.2576 8.32108C17.9536 7.92337 18.7064 7.72451 19.516 7.72451C20.3399 7.72451 21.0217 7.89496 21.5614 8.23586C22.1012 8.56255 22.5273 8.96027 22.8398 9.429L22.9889 8.08672H24.9704V16.9927H22.8185V15.5865C22.6622 15.7853 22.4279 16.0126 22.1154 16.2683C21.8029 16.5239 21.4265 16.7441 20.9862 16.9288C20.5458 17.1134 20.0416 17.2057 19.4734 17.2057ZM20.0487 15.4373C20.7589 15.4373 21.3555 15.2527 21.8384 14.8834C22.3355 14.4999 22.6622 13.9814 22.8185 13.328V11.4957C22.648 10.9133 22.3 10.4304 21.7745 10.0469C21.2631 9.66337 20.6666 9.47161 19.9848 9.47161C19.4734 9.47161 19.0047 9.59945 18.5786 9.85512C18.1524 10.0966 17.8115 10.4446 17.5559 10.8991C17.3002 11.3395 17.1724 11.8508 17.1724 12.4332C17.1724 13.0013 17.3002 13.5127 17.5559 13.9672C17.8258 14.4217 18.1809 14.7839 18.6212 15.0538C19.0615 15.3095 19.5373 15.4373 20.0487 15.4373ZM30.2505 8.08672L30.4209 10.196C30.6766 9.68468 31.0175 9.24435 31.4436 8.87504C31.8698 8.50574 32.3101 8.22166 32.7646 8.0228C33.2334 7.82394 33.6311 7.72451 33.9578 7.72451L33.8512 9.85512C33.1836 9.81251 32.5942 9.94035 32.0828 10.2386C31.5857 10.5369 31.1951 10.9346 30.911 11.4318C30.6269 11.9289 30.4849 12.4616 30.4849 13.0297V16.9927H28.3329V8.08672H30.2505ZM41.9659 17.2057C41.2273 17.2057 40.5739 17.0708 40.0057 16.8009C39.4375 16.5168 38.9688 16.1475 38.5995 15.693V16.9927H36.4476V0.437819H38.5995V9.17333C38.9546 8.74721 39.4517 8.39921 40.0909 8.12933C40.7301 7.85945 41.4474 7.72451 42.2428 7.72451C43.0383 7.72451 43.7627 7.91627 44.4161 8.29978C45.0695 8.66908 45.595 9.20174 45.9927 9.89774C46.3904 10.5937 46.5893 11.4247 46.5893 12.3906C46.5893 13.399 46.3691 14.2655 45.9288 14.9899C45.5027 15.7001 44.9416 16.247 44.2456 16.6305C43.5496 17.014 42.7897 17.2057 41.9659 17.2057ZM41.4971 15.3947C42.0511 15.3947 42.5482 15.2669 42.9886 15.0112C43.4289 14.7413 43.7698 14.3791 44.0113 13.9246C44.2669 13.4701 44.3948 12.9587 44.3948 12.3906C44.3948 11.8224 44.2669 11.3181 44.0113 10.8778C43.7556 10.4375 43.4076 10.0895 42.9673 9.83382C42.5411 9.56394 42.0511 9.429 41.4971 9.429C40.7869 9.429 40.169 9.61366 39.6435 9.98296C39.1179 10.3523 38.7699 10.8423 38.5995 11.4531V13.328C38.7842 13.9246 39.125 14.4217 39.6222 14.8195C40.1335 15.203 40.7585 15.3947 41.4971 15.3947ZM48.4143 12.4545C48.4143 11.5596 48.6274 10.7571 49.0535 10.0469C49.4796 9.32247 50.0691 8.75431 50.8219 8.34239C51.5747 7.93047 52.4341 7.72451 53.3999 7.72451C54.38 7.72451 55.2323 7.93047 55.9567 8.34239C56.6953 8.75431 57.2634 9.32247 57.6612 10.0469C58.0731 10.7571 58.279 11.5596 58.279 12.4545C58.279 13.3493 58.0731 14.159 57.6612 14.8834C57.2492 15.5936 56.674 16.1617 55.9354 16.5879C55.211 16.9998 54.3516 17.2057 53.3573 17.2057C52.4198 17.2057 51.5747 17.014 50.8219 16.6305C50.0833 16.247 49.4938 15.7001 49.0535 14.9899C48.6274 14.2655 48.4143 13.4203 48.4143 12.4545ZM50.5875 12.4758C50.5875 13.0297 50.7083 13.534 50.9497 13.9885C51.1912 14.4288 51.5179 14.7839 51.9298 15.0538C52.3559 15.3095 52.8247 15.4373 53.336 15.4373C54.1456 15.4373 54.8061 15.1532 55.3175 14.5851C55.843 14.0169 56.1058 13.3138 56.1058 12.4758C56.1058 11.6377 55.843 10.9346 55.3175 10.3665C54.8061 9.7841 54.1456 9.49292 53.336 9.49292C52.8105 9.49292 52.3417 9.62786 51.9298 9.89774C51.5179 10.1676 51.1912 10.5298 50.9497 10.9843C50.7083 11.4389 50.5875 11.936 50.5875 12.4758ZM62.8136 8.08672L62.9627 9.74859C63.261 9.13782 63.7226 8.65488 64.3476 8.29978C64.9726 7.93047 65.697 7.74582 66.5208 7.74582C67.3589 7.74582 68.0478 7.99439 68.5875 8.49153C69.1273 8.97447 69.4043 9.61366 69.4185 10.4091V16.9927H67.2666V11.1548C67.2524 10.7003 67.1174 10.331 66.8617 10.0469C66.6061 9.74859 66.2084 9.59235 65.6686 9.57814C64.9158 9.57814 64.2837 9.89063 63.7724 10.5156C63.2752 11.1406 63.0266 11.9431 63.0266 12.9232V16.9927H60.8747V8.08672H62.8136ZM72.3496 9.27986C72.3496 8.21455 72.5484 7.20606 72.9461 6.25439C73.3581 5.30272 73.9262 4.46468 74.6506 3.74027C75.375 3.00166 76.2131 2.42639 77.1647 2.01447C78.1164 1.58835 79.132 1.37529 80.2115 1.37529C81.291 1.37529 82.3066 1.58835 83.2583 2.01447C84.2242 2.42639 85.0693 3.00166 85.7937 3.74027C86.5323 4.46468 87.1076 5.30272 87.5195 6.25439C87.9314 7.20606 88.1374 8.21455 88.1374 9.27986C88.1374 10.3594 87.9314 11.375 87.5195 12.3266C87.1076 13.2783 86.5465 14.1092 85.8363 14.8195H88.8192V16.9927H81.8521C81.3123 17.1063 80.7655 17.1631 80.2115 17.1631C79.132 17.1631 78.1164 16.9643 77.1647 16.5666C76.2131 16.1546 75.375 15.5936 74.6506 14.8834C73.9262 14.1732 73.3581 13.3422 72.9461 12.3906C72.5484 11.4247 72.3496 10.3878 72.3496 9.27986ZM74.6506 9.30117C74.6506 10.3381 74.8992 11.2897 75.3963 12.1562C75.8935 13.0226 76.5682 13.7115 77.4204 14.2229C78.2727 14.7342 79.2243 14.9899 80.2754 14.9899C81.3123 14.9899 82.2498 14.7342 83.0878 14.2229C83.9259 13.7115 84.5935 13.0226 85.0906 12.1562C85.5878 11.2897 85.8363 10.331 85.8363 9.27986C85.8363 8.49863 85.6872 7.76712 85.3889 7.08533C85.1048 6.38933 84.7071 5.78566 84.1958 5.27431C83.6844 4.74876 83.0878 4.33684 82.4061 4.03855C81.7385 3.74027 81.0141 3.59112 80.2328 3.59112C79.1817 3.59112 78.2301 3.8539 77.3778 4.37945C76.5398 4.8908 75.8722 5.5797 75.375 6.44614C74.8921 7.31259 74.6506 8.26427 74.6506 9.30117ZM94.5654 17.3549C93.7415 17.3549 93.0668 17.1063 92.5413 16.6092C92.0157 16.112 91.7387 15.4728 91.7103 14.6916V8.08672H93.8623V13.9246C93.8907 14.3933 94.0256 14.7697 94.2671 15.0538C94.5085 15.3379 94.8921 15.4941 95.4176 15.5226C95.9005 15.5226 96.3338 15.3805 96.7173 15.0964C97.1008 14.7981 97.3991 14.3933 97.6121 13.882C97.8394 13.3706 97.953 12.7954 97.953 12.1562V8.08672H100.105V16.9927H98.1661L98.0383 15.3521C97.74 15.9345 97.2783 16.4174 96.6534 16.8009C96.0426 17.1702 95.3466 17.3549 94.5654 17.3549ZM107.663 17.2057C106.64 17.2057 105.76 17.0069 105.021 16.6092C104.282 16.1972 103.714 15.6362 103.317 14.926C102.919 14.2016 102.72 13.3848 102.72 12.4758C102.72 11.5951 102.94 10.7997 103.38 10.0895C103.835 9.36508 104.439 8.78982 105.191 8.3637C105.944 7.93757 106.782 7.72451 107.706 7.72451C108.899 7.72451 109.886 8.07251 110.667 8.76851C111.463 9.45031 111.995 10.4162 112.265 11.6661L105.298 14.0737C105.554 14.4857 105.887 14.8052 106.299 15.0325C106.725 15.2598 107.194 15.3734 107.706 15.3734C108.089 15.3734 108.458 15.3095 108.813 15.1817C109.169 15.0396 109.502 14.855 109.815 14.6277L110.795 16.2257C110.34 16.5239 109.836 16.7654 109.282 16.9501C108.742 17.1205 108.203 17.2057 107.663 17.2057ZM104.872 12.7954L109.836 10.9843C109.652 10.5724 109.375 10.2102 109.005 9.89774C108.65 9.58525 108.167 9.429 107.556 9.429C106.761 9.429 106.108 9.70598 105.596 10.2599C105.099 10.7997 104.851 11.4957 104.851 12.3479C104.851 12.5042 104.858 12.6533 104.872 12.7954ZM117.259 17.1844C116.606 17.1844 115.981 17.0708 115.384 16.8435C114.788 16.6021 114.283 16.2612 113.871 15.8208L114.788 14.5851C115.157 14.9402 115.54 15.2101 115.938 15.3947C116.35 15.5794 116.733 15.6717 117.089 15.6717C117.501 15.6717 117.863 15.5936 118.175 15.4373C118.488 15.2669 118.644 14.9899 118.644 14.6064C118.644 14.2939 118.537 14.0524 118.324 13.882C118.125 13.7115 117.87 13.5695 117.557 13.4559C117.245 13.3422 116.911 13.2357 116.556 13.1363C115.036 12.6391 114.276 11.7656 114.276 10.5156C114.276 10.0469 114.39 9.60655 114.617 9.19463C114.859 8.76851 115.221 8.42761 115.704 8.17194C116.187 7.90206 116.783 7.76712 117.493 7.76712C118.118 7.76712 118.679 7.84525 119.177 8.00149C119.674 8.14353 120.135 8.3921 120.561 8.74721L119.731 10.0469C119.475 9.79121 119.169 9.59945 118.814 9.47161C118.473 9.32957 118.161 9.25145 117.877 9.23725C117.493 9.23725 117.16 9.32957 116.876 9.51423C116.591 9.68468 116.449 9.91904 116.449 10.2173C116.435 10.615 116.599 10.9062 116.939 11.0909C117.28 11.2613 117.671 11.4176 118.111 11.5596C118.168 11.5738 118.225 11.5951 118.282 11.6235C118.353 11.6377 118.424 11.659 118.495 11.6875C119.148 11.9005 119.688 12.1917 120.114 12.561C120.554 12.9303 120.775 13.4701 120.775 14.1803C120.775 14.72 120.647 15.2172 120.391 15.6717C120.135 16.1262 119.745 16.4955 119.219 16.7796C118.708 17.0495 118.054 17.1844 117.259 17.1844ZM124.355 4.1877H126.529V8.10802H128.915V9.79121H126.529V16.9927H124.355V9.79121H122.779V8.10802H124.355V4.1877Z" fill="black"/>
</svg>
